PathFileType	4	(X/Y/Z)	Walk5.trc
DataRate	CameraRate	NumFrames	NumMarkers	Units	OrigDataRate	OrigDataStartFrame	OrigNumFrames
200.000000	200.000000	8	61	mm	200.000000	609	775
Frame#	Times		RCAR		LTH3		RTH2		LBHD		LCAR		LUA1		LFA1		RTB3		LWRU		LElbow		RToe		RTB2		RMT5		C7		RMT1		RBHD		LWRR		RMMAL		RTB1		RWRU		RFA1		LTH2		RTB4		RLFC		LTH4		RPSI		RLMAL		T10		LASI		RBack		RTH1		STRN		LPSI		LElbowM		LLFC		RElbow		LTB4		RUA1		LTB3		LACR1		LCAL		RTH3		RCAL		RElbowM		LTB1		LToe		CLAV		LMFC		LTB2		RASI		LFHD		RACR1		RTH4		LMT5		RFHD		RWRR		LMMAL		RMFC		LLMAL		LMT1		LTH1
			X1	Y1	Z1	X2	Y2	Z2	X3	Y3	Z3	X4	Y4	Z4	X5	Y5	Z5	X6	Y6	Z6	X7	Y7	Z7	X8	Y8	Z8	X9	Y9	Z9	X10	Y10	Z10	X11	Y11	Z11	X12	Y12	Z12	X13	Y13	Z13	X14	Y14	Z14	X15	Y15	Z15	X16	Y16	Z16	X17	Y17	Z17	X18	Y18	Z18	X19	Y19	Z19	X20	Y20	Z20	X21	Y21	Z21	X22	Y22	Z22	X23	Y23	Z23	X24	Y24	Z24	X25	Y25	Z25	X26	Y26	Z26	X27	Y27	Z27	X28	Y28	Z28	X29	Y29	Z29	X30	Y30	Z30	X31	Y31	Z31	X32	Y32	Z32	X33	Y33	Z33	X34	Y34	Z34	X35	Y35	Z35	X36	Y36	Z36	X37	Y37	Z37	X38	Y38	Z38	X39	Y39	Z39	X40	Y40	Z40	X41	Y41	Z41	X42	Y42	Z42	X43	Y43	Z43	X44	Y44	Z44	X45	Y45	Z45	X46	Y46	Z46	X47	Y47	Z47	X48	Y48	Z48	X49	Y49	Z49	X50	Y50	Z50	X51	Y51	Z51	X52	Y52	Z52	X53	Y53	Z53	X54	Y54	Z54	X55	Y55	Z55	X56	Y56	Z56	X57	Y57	Z57	X58	Y58	Z58	X59	Y59	Z59	X60	Y60	Z60	X61	Y61	Z61

609	3.045	309.54	846.67	318.43	208.96	615.49	-173.4	265.43	714.15	155.06	127.72	1650.8	-63.457	250.73	835.21	-276.62	115.99	1298.9	-253.2	130.09	994.18	-279.5	193.03	188.27	68.535	175.64	867.39	-266.39	95.177	1142.3	-273.3	332.19	28.796	88.297	192.3	272.76	142.58	225.42	25.178	143.6	106.83	1519.5	9.7967	275.82	38.472	64.262	143.36	1650.7	77.214	244.74	888.26	-224.25	166.6	92.999	27.867	232.47	369.27	87.335	245.24	869.15	324.32	202.87	1000	329.59	260.05	721.37	-163.74	213.34	278.63	76.463	195.82	497.21	164.41	191.11	705.9	-178.86	8.583	1030	73.423	134.62	69.816	108.35	0.81467	1297.1	23.121	194.16	1039.8	-133.86	46.516	1431.5	150.86	194.99	804.33	201.22	281.44	1256.7	-14.305	-2.9798	1023.7	-3.5619	66.95	1132.1	-200.86	210	521.12	-167.97	164.52	1146.2	309.67	125.28	320.24	-103.89	189.31	1298.6	261.98	53.513	256.25	-102.15	158.35	1472.7	-164.14	-136.57	196.51	-73.742	200.99	614.82	175.83	77.031	35.817	59.199	122.03	1126.8	243.09	191.98	380.17	-108.3	46.08	47.509	-135.38	236.19	1430.4	-5.6475	252.54	519.04	-44.519	98.208	348.01	-168.96	230.52	1046.3	148.75	309.11	1690.7	-39.056	201.81	1467.4	158.59	201.34	708.5	193.48	-42.469	95.341	-175.75	316.39	1689.1	37.194	291.36	881.96	264.3	-26.296	184.72	-58.27	195.91	515.25	33.519	-75.11	198.03	-131.41	11.237	69.42	-106.98	177.21	797.65	-181.45
610	3.05	320.05	848.62	317.29	217.09	616.89	-173.27	268.34	713.66	155.09	132.73	1651.2	-63.202	251.35	834.51	-275.9	119.52	1299.2	-252.7	131.77	994.34	-278.65	193.37	188.15	68.503	176.53	867.29	-265.64	97.85	1142.6	-272.47	332.2	28.76	88.383	192.97	272.67	142.55	225.4	25.18	143.59	111.83	1519.9	10.143	275.82	38.453	64.234	148.39	1651.1	77.471	245.82	887.66	-223.58	166.61	93.005	27.861	233.4	369.06	87.316	255.46	870.39	323.63	211.89	1000.8	329.44	267.31	723.22	-163.7	213.95	278.46	76.46	197.25	497.17	164.42	198.36	707.15	-178.78	13.308	1030.5	73.707	134.68	69.863	108.29	5.7428	1297.6	23.728	199.14	1040.4	-133.4	51.774	1432	151.42	198.75	804.4	201.26	286.19	1257.1	-14.057	1.7497	1024.2	-3.2966	69.786	1132.7	-199.95	218.93	522.55	-167.69	172.12	1146.7	310.06	137.11	320.23	-103.61	195.84	1299.3	262.1	66.362	255.13	-101.75	162.97	1473	-163.91	-122.79	191.79	-73.008	203.26	614.82	175.9	76.992	35.931	59.191	129.32	1127.1	243.65	202.91	381.21	-108.13	63.077	46.949	-135.34	241.13	1430.8	-5.4446	261.57	520.84	-44.442	109.33	347.83	-168.48	235.11	1046.7	149.24	314.14	1691	-38.816	207.04	1468	158.72	204.39	708.49	193.57	-26.548	93.067	-175.4	321.43	1689.5	37.436	301.12	883.73	263.28	-12.189	182.27	-57.746	197.41	515.22	33.492	-61.366	194.8	-130.76	27.803	68.119	-106.79	183.83	798.78	-181.25
611	3.055	330.52	850.6	316.12	225.15	618.28	-173.13	271.24	713.16	155.12	137.74	1651.5	-62.967	251.98	833.83	-275.19	123.03	1299.5	-252.23	133.44	994.5	-277.82	193.7	188.04	68.48	177.43	867.22	-264.88	100.49	1143	-271.67	332.21	28.729	88.466	193.61	272.57	142.52	225.38	25.183	143.58	116.83	1520.3	10.476	275.82	38.437	64.209	153.41	1651.5	77.708	246.92	887.09	-222.93	166.6	93.011	27.87	234.32	368.85	87.305	265.66	871.65	322.89	220.88	1001.6	329.26	274.49	725.04	-163.64	214.56	278.29	76.46	198.65	497.13	164.44	205.53	708.38	-178.7	18.021	1030.9	73.963	134.72	69.915	108.24	10.664	1298	24.304	204.12	1041	-132.94	57.022	1432.5	151.97	202.48	804.45	201.3	290.94	1257.3	-13.796	6.4643	1024.7	-3.0572	72.605	1133.4	-199.06	227.76	523.95	-167.41	179.67	1147.3	310.42	148.96	320.15	-103.29	202.31	1300	262.21	79.303	253.89	-101.34	167.61	1473.3	-163.68	-108.79	186.81	-72.312	205.5	614.83	175.96	76.946	36.045	59.196	136.61	1127.4	244.17	213.77	382.23	-107.89	80.314	46.319	-135.25	246.08	1431.1	-5.2489	270.48	522.63	-44.342	120.48	347.5	-168	239.69	1047	149.76	319.16	1691.4	-38.596	212.25	1468.6	158.84	207.41	708.48	193.64	-10.374	90.621	-175.05	326.47	1689.8	37.658	310.88	885.53	262.23	2.0819	179.65	-57.233	198.9	515.19	33.473	-47.424	191.34	-130.13	44.598	66.716	-106.56	190.36	799.91	-181.06
612	3.06	340.96	852.62	314.92	233.12	619.64	-172.97	274.14	712.65	155.15	142.74	1651.8	-62.751	252.61	833.18	-274.5	126.52	1299.7	-251.78	135.1	994.66	-277	194.02	187.93	68.468	178.34	867.15	-264.12	103.11	1143.3	-270.89	332.21	28.7	88.547	194.24	272.49	142.51	225.37	25.187	143.57	121.83	1520.7	10.796	275.82	38.423	64.188	158.42	1651.8	77.924	248.03	886.56	-222.3	166.59	93.019	27.89	235.24	368.66	87.302	275.82	872.93	322.11	229.82	1002.4	329.05	281.59	726.84	-163.57	215.17	278.13	76.464	200.03	497.09	164.46	212.64	709.6	-178.61	22.723	1031.3	74.195	134.77	69.972	108.2	15.58	1298.4	24.851	209.11	1041.5	-132.48	62.258	1432.9	152.5	206.19	804.48	201.32	295.69	1257.6	-13.525	11.165	1025.2	-2.842	75.408	1134	-198.19	236.49	525.31	-167.13	187.18	1147.9	310.76	160.81	320.03	-102.93	208.74	1300.7	262.33	92.334	252.54	-100.9	172.26	1473.6	-163.47	-94.549	181.6	-71.654	207.71	614.83	176.01	76.895	36.158	59.212	143.89	1127.7	244.65	224.55	383.24	-107.6	97.776	45.63	-135.11	251.02	1431.4	-5.059	279.25	524.41	-44.217	131.68	347.02	-167.52	244.25	1047.4	150.31	324.18	1691.7	-38.397	217.44	1469.1	158.94	210.4	708.47	193.69	6.0467	88.022	-174.69	331.5	1690.2	37.861	320.63	887.36	261.15	16.517	176.87	-56.734	200.38	515.16	33.459	-33.283	187.66	-129.54	61.613	65.227	-106.32	196.79	801.02	-180.89
613	3.065	351.35	854.66	313.7	241.01	620.99	-172.79	277.04	712.13	155.19	147.74	1652.1	-62.553	253.26	832.54	-273.81	129.99	1300	-251.36	136.76	994.81	-276.2	194.33	187.82	68.464	179.27	867.08	-263.35	105.71	1143.7	-270.14	332.21	28.673	88.626	194.86	272.4	142.5	225.35	25.191	143.55	126.82	1521	11.102	275.82	38.412	64.172	163.43	1652.2	78.122	249.15	886.04	-221.69	166.57	93.029	27.919	236.14	368.47	87.31	285.95	874.22	321.29	238.73	1003.2	328.81	288.61	728.6	-163.48	215.78	277.97	76.472	201.37	497.06	164.49	219.66	710.79	-178.51	27.416	1031.7	74.406	134.81	70.035	108.16	20.492	1298.8	25.366	214.09	1042.1	-132.02	67.483	1433.3	153.01	209.87	804.5	201.35	300.43	1257.8	-13.244	15.852	1025.6	-2.6495	78.2	1134.6	-197.35	245.11	526.61	-166.84	194.65	1148.4	311.09	172.67	319.85	-102.53	215.12	1301.4	262.45	105.45	251.09	-100.44	176.92	1473.8	-163.26	-80.072	176.17	-71.032	209.9	614.83	176.07	76.842	36.271	59.241	151.16	1127.9	245.1	235.25	384.24	-107.25	115.45	44.894	-134.94	255.96	1431.7	-4.8737	287.89	526.18	-44.068	142.91	346.41	-167.05	248.81	1047.6	150.89	329.19	1691.9	-38.219	222.62	1469.7	159.04	213.37	708.44	193.72	22.707	85.288	-174.33	336.52	1690.4	38.045	330.36	889.21	260.04	31.117	173.96	-56.249	201.84	515.12	33.452	-18.941	183.79	-128.97	78.839	63.665	-106.05	203.1	802.11	-180.74
614	3.07	361.69	856.72	312.45	248.81	622.3	-172.6	279.93	711.59	155.23	152.74	1652.3	-62.372	253.93	831.93	-273.14	133.45	1300.2	-250.96	138.41	994.95	-275.41	194.64	187.71	68.466	180.21	867.02	-262.57	108.29	1144	-269.41	332.2	28.647	88.702	195.46	272.32	142.51	225.33	25.194	143.54	131.82	1521.3	11.395	275.82	38.404	64.159	168.43	1652.5	78.302	250.3	885.55	-221.11	166.55	93.041	27.955	237.04	368.28	87.329	296.04	875.52	320.44	247.59	1004	328.54	295.52	730.33	-163.36	216.39	277.82	76.483	202.69	497.02	164.52	226.61	711.95	-178.4	32.103	1032	74.6	134.86	70.103	108.14	25.399	1299.2	25.848	219.05	1042.6	-131.58	72.695	1433.7	153.51	213.53	804.49	201.36	305.18	1258	-12.956	20.527	1026	-2.4781	80.985	1135.1	-196.53	253.62	527.88	-166.55	202.07	1148.9	311.4	184.54	319.62	-102.1	221.46	1302	262.57	118.66	249.54	-99.97	181.6	1474	-163.07	-65.351	170.53	-70.448	212.06	614.82	176.13	76.791	36.385	59.281	158.43	1128.1	245.51	245.86	385.21	-106.85	133.33	44.124	-134.74	260.9	1431.9	-4.6919	296.38	527.91	-43.894	154.18	345.65	-166.59	253.37	1047.9	151.48	334.2	1692.1	-38.059	227.79	1470.1	159.13	216.31	708.41	193.73	39.601	82.437	-173.97	341.54	1690.7	38.211	340.07	891.07	258.9	45.882	170.93	-55.783	203.28	515.09	33.45	-4.3968	179.74	-128.43	96.271	62.047	-105.78	209.27	803.16	-180.61
615	3.075	371.97	858.8	311.19	256.51	623.59	-172.39	282.81	711.04	155.27	157.73	1652.5	-62.208	254.61	831.33	-272.48	136.9	1300.4	-250.57	140.06	995.09	-274.64	194.96	187.61	68.475	181.16	866.95	-261.79	110.87	1144.3	-268.7	332.19	28.621	88.776	196.05	272.24	142.52	225.31	25.198	143.53	136.81	1521.6	11.672	275.81	38.397	64.151	173.42	1652.8	78.464	251.47	885.08	-220.55	166.52	93.054	27.995	237.94	368.1	87.358	306.09	876.83	319.55	256.41	1004.8	328.25	302.33	732.01	-163.21	217	277.68	76.498	204	496.99	164.56	233.48	713.08	-178.29	36.785	1032.4	74.779	134.9	70.177	108.11	30.303	1299.5	26.296	224	1043	-131.16	77.893	1434	153.98	217.17	804.45	201.38	309.94	1258.1	-12.663	25.19	1026.4	-2.3265	83.766	1135.7	-195.74	262.02	529.08	-166.26	209.45	1149.4	311.69	196.4	319.34	-101.64	227.75	1302.6	262.7	131.95	247.91	-99.488	186.29	1474.2	-162.89	-50.38	164.71	-69.902	214.21	614.81	176.18	76.744	36.501	59.332	165.68	1128.3	245.89	256.37	386.17	-106.4	151.4	43.335	-134.51	265.83	1432.1	-4.5133	304.73	529.61	-43.695	165.49	344.77	-166.14	257.92	1048.1	152.08	339.21	1692.3	-37.918	232.94	1470.6	159.21	219.23	708.37	193.74	56.722	79.488	-173.61	346.55	1690.9	38.36	349.75	892.96	257.74	60.812	167.79	-55.337	204.71	515.05	33.456	10.35	175.52	-127.92	113.9	60.389	-105.5	215.32	804.19	-180.49
616	3.08	382.19	860.89	309.91	264.11	624.84	-172.17	285.68	710.48	155.32	162.72	1652.7	-62.06	255.3	830.74	-271.84	140.34	1300.5	-250.21	141.72	995.22	-273.89	195.28	187.52	68.49	182.12	866.87	-261.01	113.44	1144.6	-268.02	332.18	28.595	88.847	196.63	272.17	142.55	225.29	25.202	143.52	141.81	1521.9	11.933	275.8	38.392	64.147	178.41	1653	78.61	252.66	884.62	-220.02	166.5	93.068	28.037	238.83	367.92	87.399	316.1	878.15	318.62	265.19	1005.5	327.93	309.02	733.65	-163.02	217.62	277.54	76.518	205.28	496.95	164.61	240.27	714.17	-178.18	41.461	1032.7	74.946	134.94	70.256	108.1	35.204	1299.8	26.71	228.93	1043.4	-130.75	83.078	1434.3	154.43	220.78	804.4	201.39	314.7	1258.3	-12.368	29.842	1026.8	-2.1933	86.548	1136.3	-194.97	270.28	530.24	-165.98	216.78	1149.8	311.96	208.26	319.02	-101.15	233.99	1303.2	262.82	145.33	246.2	-99	190.99	1474.3	-162.72	-35.155	158.73	-69.394	216.34	614.8	176.25	76.707	36.617	59.391	172.92	1128.5	246.24	266.79	387.1	-105.91	169.65	42.543	-134.26	270.77	1432.3	-4.3383	312.91	531.27	-43.472	176.83	343.76	-165.7	262.48	1048.3	152.68	344.22	1692.5	-37.794	238.08	1471	159.27	222.12	708.31	193.75	74.065	76.462	-173.27	351.57	1691.1	38.492	359.39	894.86	256.57	75.909	164.55	-54.915	206.13	515.02	33.469	25.3	171.16	-127.45	131.72	58.708	-105.22	221.23	805.16	-180.39
